<svg width="17" height="15" viewBox="0 0 17 15" fill="none" xmlns="http://www.w3.org/2000/svg">
<path d="M15.0385 0H1.96154C1.44131 0 0.942381 0.197544 0.574521 0.549175C0.206662 0.900806 0 1.37772 0 1.875V10.625C0 11.1223 0.206662 11.5992 0.574521 11.9508C0.942381 12.3025 1.44131 12.5 1.96154 12.5H7.84615V13.75H5.88462C5.7112 13.75 5.5449 13.8158 5.42228 13.9331C5.29966 14.0503 5.23077 14.2092 5.23077 14.375C5.23077 14.5408 5.29966 14.6997 5.42228 14.8169C5.5449 14.9342 5.7112 15 5.88462 15H11.1154C11.2888 15 11.4551 14.9342 11.5777 14.8169C11.7003 14.6997 11.7692 14.5408 11.7692 14.375C11.7692 14.2092 11.7003 14.0503 11.5777 13.9331C11.4551 13.8158 11.2888 13.75 11.1154 13.75H9.15385V12.5H15.0385C15.5587 12.5 16.0576 12.3025 16.4255 11.9508C16.7933 11.5992 17 11.1223 17 10.625V1.875C17 1.37772 16.7933 0.900806 16.4255 0.549175C16.0576 0.197544 15.5587 0 15.0385 0ZM1.96154 1.25H15.0385C15.2119 1.25 15.3782 1.31585 15.5008 1.43306C15.6234 1.55027 15.6923 1.70924 15.6923 1.875V8.125H1.30769V1.875C1.30769 1.70924 1.37658 1.55027 1.4992 1.43306C1.62182 1.31585 1.78813 1.25 1.96154 1.25ZM15.0385 11.25H1.96154C1.78813 11.25 1.62182 11.1842 1.4992 11.0669C1.37658 10.9497 1.30769 10.7908 1.30769 10.625V9.375H15.6923V10.625C15.6923 10.7908 15.6234 10.9497 15.5008 11.0669C15.3782 11.1842 15.2119 11.25 15.0385 11.25Z" fill="#33363F"/>
</svg>
