<svg width="27" height="27" viewBox="0 0 27 27" fill="currentColor" xmlns="http://www.w3.org/2000/svg">
<mask id="path-1-outside-1_174_3321" maskUnits="userSpaceOnUse" x="3.625" y="4.75" width="19" height="19" fill="black">
<rect fill="white" x="3.625" y="4.75" width="19" height="19"/>
<path d="M15.4608 8.16421L7.14171 16.4833C6.94706 16.6779 6.84974 16.7753 6.78276 16.8936C6.71579 17.0118 6.68241 17.1454 6.61564 17.4124L5.82711 20.5665C5.73686 20.9276 5.69173 21.1081 5.79182 21.2082C5.8919 21.3083 6.07242 21.2631 6.43344 21.1729L6.43345 21.1729L9.58757 20.3844C9.85463 20.3176 9.98816 20.2842 10.1064 20.2172C10.2247 20.1503 10.3221 20.0529 10.5167 19.8583L18.8358 11.5392L18.8358 11.5392C19.5025 10.8725 19.8358 10.5392 19.8358 10.125C19.8358 9.71079 19.5025 9.37745 18.8358 8.71079L18.2892 8.16421C17.6225 7.49755 17.2892 7.16421 16.875 7.16421C16.4608 7.16421 16.1275 7.49755 15.4608 8.16421Z"/>
</mask>
<path d="M7.14171 16.4833L8.55593 17.8975L8.55593 17.8975L7.14171 16.4833ZM15.4608 8.16421L14.0466 6.75V6.75L15.4608 8.16421ZM18.2892 8.16421L16.875 9.57843L16.875 9.57843L18.2892 8.16421ZM18.8358 8.71079L20.25 7.29657L20.25 7.29657L18.8358 8.71079ZM18.8358 11.5392L20.25 12.9534L20.3283 12.8751L20.3975 12.7886L18.8358 11.5392ZM10.5167 19.8583L9.1025 18.4441H9.1025L10.5167 19.8583ZM6.61564 17.4124L8.55593 17.8975L8.55593 17.8975L6.61564 17.4124ZM5.82711 20.5665L7.7674 21.0516V21.0516L5.82711 20.5665ZM6.43345 21.1729L5.94838 19.2326L5.86124 19.2544L5.77641 19.2839L6.43345 21.1729ZM9.58757 20.3844L10.0726 22.3246L9.58757 20.3844ZM5.79182 21.2082L7.20603 19.794L7.20603 19.794L5.79182 21.2082ZM6.43344 21.1729L6.91851 23.1132L7.00565 23.0914L7.09048 23.0619L6.43344 21.1729ZM10.1064 20.2172L9.12106 18.4768L9.12104 18.4768L10.1064 20.2172ZM18.8358 11.5392L17.4216 10.125L17.3433 10.2033L17.2741 10.2898L18.8358 11.5392ZM6.78276 16.8936L5.04236 15.9082L5.04236 15.9082L6.78276 16.8936ZM8.55593 17.8975L16.875 9.57843L14.0466 6.75L5.7275 15.0691L8.55593 17.8975ZM16.875 9.57843L17.4216 10.125L20.25 7.29657L19.7034 6.75L16.875 9.57843ZM17.4216 10.125L9.1025 18.4441L11.9309 21.2725L20.25 12.9534L17.4216 10.125ZM4.67536 16.9274L3.88683 20.0815L7.7674 21.0516L8.55593 17.8975L4.67536 16.9274ZM6.91852 23.1132L10.0726 22.3246L9.1025 18.4441L5.94838 19.2326L6.91852 23.1132ZM3.88683 20.0815C3.858 20.1968 3.77555 20.5046 3.74759 20.7905C3.7172 21.1011 3.69009 21.9349 4.3776 22.6224L7.20603 19.794C7.47171 20.0597 7.62414 20.3755 7.69144 20.6678C7.75013 20.9228 7.73465 21.1179 7.72858 21.1799C7.72199 21.2474 7.71292 21.279 7.722 21.2381C7.73037 21.2003 7.74288 21.1497 7.7674 21.0516L3.88683 20.0815ZM5.77641 19.2839L5.7764 19.2839L7.09048 23.0619L7.09049 23.0619L5.77641 19.2839ZM5.94838 19.2326C5.85031 19.2571 5.79967 19.2696 5.76194 19.278C5.72095 19.2871 5.75262 19.278 5.82006 19.2714C5.88212 19.2653 6.07723 19.2499 6.33217 19.3086C6.62455 19.3759 6.94035 19.5283 7.20603 19.794L4.3776 22.6224C5.06511 23.3099 5.89887 23.2828 6.20949 23.2524C6.49539 23.2244 6.80322 23.142 6.91851 23.1132L5.94838 19.2326ZM9.1025 18.4441C9.07779 18.4688 9.0567 18.4899 9.03714 18.5093C9.01771 18.5287 9.00172 18.5445 8.98793 18.558C8.97417 18.5715 8.96411 18.5812 8.95672 18.5882C8.95312 18.5916 8.95045 18.5941 8.94861 18.5958C8.94676 18.5975 8.9459 18.5983 8.94592 18.5982C8.94594 18.5982 8.94698 18.5973 8.94895 18.5956C8.95092 18.5939 8.95393 18.5913 8.95791 18.588C8.96586 18.5814 8.97792 18.5716 8.99366 18.5598C9.00955 18.5479 9.02862 18.5343 9.05064 18.5199C9.07276 18.5053 9.09631 18.4908 9.12106 18.4768L11.0918 21.9576C11.501 21.726 11.8114 21.3921 11.9309 21.2725L9.1025 18.4441ZM10.0726 22.3246C10.2367 22.2836 10.6827 22.1893 11.0919 21.9576L9.12104 18.4768C9.14579 18.4628 9.1703 18.4501 9.19417 18.4386C9.21792 18.4272 9.23938 18.4178 9.25776 18.4103C9.27598 18.4029 9.29053 18.3975 9.30029 18.3941C9.30517 18.3924 9.30894 18.3912 9.31142 18.3904C9.3139 18.3895 9.31523 18.3891 9.31526 18.3891C9.31528 18.3891 9.31418 18.3895 9.31176 18.3902C9.30935 18.3909 9.30584 18.3919 9.30106 18.3932C9.29125 18.3959 9.27778 18.3996 9.25913 18.4044C9.24047 18.4093 9.21867 18.4149 9.19209 18.4216C9.16534 18.4284 9.1364 18.4356 9.1025 18.4441L10.0726 22.3246ZM17.4216 10.125C17.5935 10.2969 17.7198 10.4234 17.8238 10.5328C17.9286 10.643 17.9763 10.7002 17.9957 10.7257C18.0144 10.7502 17.9726 10.7014 17.9274 10.5928C17.8754 10.4683 17.8358 10.306 17.8358 10.125H21.8358C21.8358 9.30478 21.4782 8.69575 21.1758 8.2994C20.9086 7.94921 20.5434 7.58993 20.25 7.29657L17.4216 10.125ZM20.3975 12.7886L20.3975 12.7886L17.2741 10.2898L17.274 10.2898L20.3975 12.7886ZM20.25 12.9534C20.5434 12.6601 20.9086 12.3008 21.1758 11.9506C21.4782 11.5542 21.8358 10.9452 21.8358 10.125H17.8358C17.8358 9.94398 17.8754 9.78168 17.9274 9.65718C17.9726 9.54862 18.0144 9.49976 17.9957 9.52427C17.9763 9.54982 17.9286 9.607 17.8238 9.71715C17.7198 9.82657 17.5935 9.95307 17.4216 10.125L20.25 12.9534ZM16.875 9.57843C17.0469 9.4065 17.1734 9.28019 17.2828 9.17615C17.393 9.07142 17.4502 9.02375 17.4757 9.00426C17.5002 8.98555 17.4514 9.02736 17.3428 9.07264C17.2183 9.12455 17.056 9.16421 16.875 9.16421V5.16421C16.0548 5.16421 15.4457 5.52177 15.0494 5.82417C14.6992 6.09136 14.3399 6.45665 14.0466 6.75L16.875 9.57843ZM19.7034 6.75C19.4101 6.45665 19.0508 6.09136 18.7006 5.82417C18.3043 5.52177 17.6952 5.16421 16.875 5.16421V9.16421C16.694 9.16421 16.5317 9.12455 16.4072 9.07264C16.2986 9.02736 16.2498 8.98555 16.2743 9.00426C16.2998 9.02375 16.357 9.07142 16.4672 9.17615C16.5766 9.28019 16.7031 9.4065 16.875 9.57843L19.7034 6.75ZM5.7275 15.0691C5.60793 15.1886 5.27401 15.499 5.04236 15.9082L8.52316 17.8789C8.50915 17.9037 8.4947 17.9272 8.48014 17.9494C8.46565 17.9714 8.45207 17.9905 8.44016 18.0063C8.42837 18.0221 8.41863 18.0341 8.41202 18.0421C8.40871 18.0461 8.40613 18.0491 8.40442 18.0511C8.40271 18.053 8.40178 18.0541 8.40176 18.0541C8.40174 18.0541 8.40252 18.0532 8.40422 18.0514C8.40593 18.0495 8.40842 18.0469 8.41184 18.0433C8.41884 18.0359 8.42852 18.0258 8.442 18.0121C8.4555 17.9983 8.47132 17.9823 8.49066 17.9629C8.51013 17.9433 8.53122 17.9222 8.55593 17.8975L5.7275 15.0691ZM8.55593 17.8975C8.5644 17.8636 8.57164 17.8347 8.57839 17.8079C8.5851 17.7813 8.59068 17.7595 8.59556 17.7409C8.60043 17.7222 8.60407 17.7087 8.6068 17.6989C8.60813 17.6942 8.60914 17.6907 8.60984 17.6882C8.61054 17.6858 8.61088 17.6847 8.61088 17.6847C8.61087 17.6848 8.61046 17.6861 8.60965 17.6886C8.60884 17.6911 8.60758 17.6948 8.60588 17.6997C8.60246 17.7095 8.59713 17.724 8.5897 17.7422C8.5822 17.7606 8.57284 17.7821 8.56141 17.8058C8.54993 17.8297 8.53717 17.8542 8.52316 17.8789L5.04236 15.9082C4.81071 16.3173 4.71637 16.7633 4.67536 16.9274L8.55593 17.8975Z"  mask="url(#path-1-outside-1_174_3321)"/>
<path d="M14.0625 8.4375L17.4375 6.1875L20.8125 9.5625L18.5625 12.9375L14.0625 8.4375Z" />
</svg>
