<svg width="22" height="16" viewBox="0 0 22 16" fill="none" xmlns="http://www.w3.org/2000/svg">
<path d="M7.5139 0.482624C7.45264 0.338324 7.35555 0.216311 7.23398 0.130848C7.11241 0.045384 6.97138 0 6.82737 0C6.68337 0 6.54234 0.045384 6.42077 0.130848C6.2992 0.216311 6.20211 0.338324 6.14085 0.482624L0.072135 14.7617C0.0297345 14.8616 0.00550656 14.9696 0.000834638 15.0798C-0.00383729 15.19 0.0111382 15.3002 0.0449061 15.4039C0.113104 15.6135 0.253706 15.7846 0.435784 15.8794C0.617861 15.9742 0.826498 15.985 1.0158 15.9095C1.2051 15.834 1.35955 15.6783 1.44518 15.4767L3.02494 11.76H10.6298L12.2096 15.4767C12.252 15.5766 12.3117 15.6662 12.3854 15.7404C12.4591 15.8147 12.5452 15.8721 12.639 15.9095C12.7327 15.9469 12.8321 15.9635 12.9317 15.9583C13.0312 15.9532 13.1288 15.9263 13.219 15.8794C13.3091 15.8324 13.39 15.7663 13.4571 15.6847C13.5242 15.6031 13.5761 15.5077 13.6098 15.4039C13.6436 15.3002 13.6586 15.19 13.6539 15.0798C13.6492 14.9696 13.625 14.8616 13.5826 14.7617L7.5139 0.482624ZM3.73897 10.0801L6.82737 2.81348L9.91578 10.0801H3.73897ZM18.2062 5.04039C16.9963 5.04039 16.0509 5.40472 15.3966 6.12392C15.2596 6.28204 15.1839 6.49316 15.1855 6.71225C15.1871 6.93134 15.266 7.14106 15.4053 7.29667C15.5446 7.45228 15.7333 7.54147 15.9311 7.5452C16.129 7.54893 16.3203 7.46691 16.4643 7.31665C16.8246 6.92082 17.4125 6.72028 18.2062 6.72028C19.4607 6.72028 20.482 7.66522 20.482 8.82015V9.15823C19.8088 8.65954 19.0162 8.39551 18.2062 8.40018C16.1144 8.40018 14.4133 10.0958 14.4133 12.1799C14.4133 14.2641 16.1144 15.9597 18.2062 15.9597C19.0165 15.9636 19.8092 15.6985 20.482 15.1985C20.4914 15.4213 20.5804 15.6308 20.7293 15.7809C20.8782 15.931 21.0749 16.0095 21.2761 15.9991C21.4773 15.9886 21.6665 15.8901 21.8021 15.7252C21.9377 15.5603 22.0086 15.3425 21.9992 15.1198V8.82015C21.9992 6.73603 20.298 5.04039 18.2062 5.04039ZM18.2062 14.2798C16.9517 14.2798 15.9305 13.3349 15.9305 12.1799C15.9305 11.025 16.9517 10.0801 18.2062 10.0801C19.4607 10.0801 20.482 11.025 20.482 12.1799C20.482 13.3349 19.4607 14.2798 18.2062 14.2798Z" fill="black"/>
</svg>
