<svg width="28" height="28" viewBox="0 0 28 28" fill="none" xmlns="http://www.w3.org/2000/svg">
<path d="M13.9997 4.66675L5.83301 8.16675L13.9997 11.6667L22.1663 8.16675L13.9997 4.66675Z" stroke="#33363F" stroke-width="2" stroke-linejoin="round"/>
<path fill-rule="evenodd" clip-rule="evenodd" d="M8.83068 11.6272L5.43909 13.0807C5.0714 13.2383 4.83301 13.5999 4.83301 13.9999C4.83301 14.3999 5.0714 14.7614 5.43909 14.919L13.6058 18.419C13.8573 18.5268 14.142 18.5268 14.3936 18.419L22.5603 14.919C22.9279 14.7614 23.1663 14.3999 23.1663 13.9999C23.1663 13.5999 22.9279 13.2383 22.5603 13.0807L19.1687 11.6272L16.6301 12.7152L19.6278 13.9999L13.9997 16.4119L8.3716 13.9999L11.3693 12.7152L8.83068 11.6272Z" fill="#33363F"/>
<path fill-rule="evenodd" clip-rule="evenodd" d="M8.83068 17.4607L5.43909 18.9142C5.0714 19.0718 4.83301 19.4333 4.83301 19.8334C4.83301 20.2334 5.0714 20.5949 5.43909 20.7525L13.6058 24.2525C13.8573 24.3603 14.142 24.3603 14.3936 24.2525L22.5603 20.7525C22.9279 20.5949 23.1663 20.2334 23.1663 19.8334C23.1663 19.4333 22.9279 19.0718 22.5603 18.9142L19.1687 17.4607L16.6301 18.5487L19.6278 19.8334L13.9997 22.2454L8.3716 19.8334L11.3693 18.5487L8.83068 17.4607Z" fill="#33363F"/>
</svg>
