<svg width="39" height="35" viewBox="0 0 39 35" fill="none" xmlns="http://www.w3.org/2000/svg">
<path fill-rule="evenodd" clip-rule="evenodd" d="M8.41337 14.7673C7.97559 15.6376 7.97559 16.6276 7.97559 18.6077V24.7916C7.97559 27.5414 7.97559 28.9164 8.90995 29.7706C9.8231 30.6055 11.2802 30.6245 14.1533 30.6249V23.3333C14.1533 21.8932 15.4014 20.875 16.7484 20.875H21.5335C22.8805 20.875 24.1286 21.8932 24.1286 23.3333V30.6249C27.0017 30.6245 28.4588 30.6055 29.372 29.7706C30.3063 28.9164 30.3063 27.5414 30.3063 24.7916V18.6077C30.3063 16.6276 30.3063 15.6376 29.8685 14.7673C29.4308 13.8971 28.6086 13.2528 26.9643 11.9642L25.3692 10.7142C22.3971 8.38503 20.9111 7.22046 19.141 7.22046C17.3708 7.22046 15.8848 8.38503 12.9127 10.7142L11.3176 11.9642C9.6733 13.2528 8.85115 13.8971 8.41337 14.7673ZM22.1286 30.6249V23.3333C22.1286 23.1627 21.9484 22.875 21.5335 22.875H16.7484C16.3335 22.875 16.1533 23.1627 16.1533 23.3333V30.6249H22.1286Z" fill="#33363F"/>
</svg>
