<svg width="30" height="30" viewBox="0 0 30 30" fill="currentColor" stroke="currentColor" xmlns="http://www.w3.org/2000/svg">
<circle cx="21.875" cy="21.875" r="3.125" fill="none" stroke="currentColor" stroke-width="2"/>
<path d="M26.25 26.25L24.375 24.375" stroke="currentColor" stroke-width="2" stroke-linecap="round"/>
<path fill-rule="evenodd" clip-rule="evenodd" d="M5 10.5C5 6.72876 5 4.84315 6.17157 3.67157C7.34315 2.5 9.22876 2.5 13 2.5H17C20.7712 2.5 22.6569 2.5 23.8284 3.67157C25 4.84315 25 6.72876 25 10.5V17.1972C24.1062 16.5989 23.0313 16.25 21.875 16.25C18.7684 16.25 16.25 18.7684 16.25 21.875C16.25 24.6388 18.2432 26.937 20.8706 27.4106C19.8601 27.5 18.5997 27.5 17 27.5H13C9.22876 27.5 7.34315 27.5 6.17157 26.3284C5 25.1569 5 23.2712 5 19.5V10.5ZM21.875 21.25C21.5298 21.25 21.25 21.5298 21.25 21.875C21.25 22.2202 21.5298 22.5 21.875 22.5C22.2202 22.5 22.5 22.2202 22.5 21.875C22.5 21.5298 22.2202 21.25 21.875 21.25ZM10 6.5C9.44772 6.5 9 6.94772 9 7.5C9 8.05228 9.44772 8.5 10 8.5H15C15.5523 8.5 16 8.05228 16 7.5C16 6.94772 15.5523 6.5 15 6.5H10ZM10 11.5C9.44772 11.5 9 11.9477 9 12.5C9 13.0523 9.44772 13.5 10 13.5H17.5C18.0523 13.5 18.5 13.0523 18.5 12.5C18.5 11.9477 18.0523 11.5 17.5 11.5H10ZM10 16.5C9.44772 16.5 9 16.9477 9 17.5C9 18.0523 9.44772 18.5 10 18.5H13.75C14.3023 18.5 14.75 18.0523 14.75 17.5C14.75 16.9477 14.3023 16.5 13.75 16.5H10Z"  fill="currentColor"/>
</svg>
