<svg width="25" height="24" viewBox="0 0 25 24" fill="none" xmlns="http://www.w3.org/2000/svg">
    <path d="M4.5 2H6.5V22H4.5V2Z" fill="#ABABAB"/>
    <path d="M18.5 2H20.5V22H18.5V2Z" fill="#ABABAB"/>
    <path d="M8.5 6H11.5V8H8.5V6Z" fill="#ABABAB"/>
    <path d="M8.5 10H11.5V12H8.5V10Z" fill="#ABABAB"/>
    <path d="M8.5 14H11.5V16H8.5V14Z" fill="#ABABAB"/>
    <path d="M13.5 6H16.5V8H13.5V6Z" fill="#ABABAB"/>
    <path d="M13.5 10H16.5V12H13.5V10Z" fill="#ABABAB"/>
    <path d="M13.5 14H16.5V16H13.5V14Z" fill="#ABABAB"/>
    <path d="M6.5 2H18.5V4H6.5V2Z" fill="#ABABAB"/>
    <path d="M6.5 20H18.5V22H6.5V20Z" fill="#ABABAB"/>
</svg>
