<svg width="20" height="20" viewBox="0 0 20 20" fill="none" xmlns="http://www.w3.org/2000/svg">
<path d="M7.50016 13.3333H5.21054C4.17388 13.3333 3.3335 14.1736 3.3335 15.2103V15.2103C3.3335 16.3948 4.41716 17.2832 5.57866 17.0509L5.8254 17.0015C5.88877 16.9889 5.92045 16.9825 5.94834 16.9761C6.83574 16.7721 7.47329 15.9944 7.49934 15.0842C7.50016 15.0556 7.50016 15.0233 7.50016 14.9587V8.27913C7.50016 6.70938 7.50016 5.9245 7.95348 5.37155C8.40679 4.81859 9.17643 4.66467 10.7157 4.35681L11.7477 4.1504C13.2998 3.83999 14.0758 3.68478 14.6645 3.95366C14.9794 4.09751 15.2516 4.32065 15.4544 4.60125C15.8335 5.12572 15.8335 5.91712 15.8335 7.49992V7.49992M15.8335 11.6666V13.292C15.8335 13.3566 15.8335 13.3889 15.8327 13.4175C15.8066 14.3277 15.1691 15.1054 14.2817 15.3094C14.2538 15.3159 14.2221 15.3222 14.1587 15.3349L13.912 15.3842C12.7505 15.6165 11.6668 14.7281 11.6668 13.5436V13.5436C11.6668 12.507 12.5072 11.6666 13.5439 11.6666H15.8335ZM15.8335 11.6666V7.49992M15.8335 7.49992L7.50016 9.16659" stroke="#33363F"/>
</svg>
