<svg width="24" height="28" viewBox="0 0 24 28" fill="none" xmlns="http://www.w3.org/2000/svg">
<path d="M3.00374 7.97266C3.00374 5.98353 3.79391 4.07588 5.20043 2.66936C6.60696 1.26283 8.51461 0.472656 10.5037 0.472656C12.4929 0.472656 14.4005 1.26283 15.807 2.66936C17.2136 4.07588 18.0037 5.98353 18.0037 7.97266C18.0037 8.23787 17.8984 8.49223 17.7108 8.67976C17.5233 8.8673 17.269 8.97266 17.0037 8.97266C16.7385 8.97266 16.4842 8.8673 16.2966 8.67976C16.1091 8.49223 16.0037 8.23787 16.0037 7.97266C16.0037 6.51397 15.4243 5.11502 14.3928 4.08357C13.3614 3.05212 11.9624 2.47266 10.5037 2.47266C9.04504 2.47266 7.6461 3.05212 6.61465 4.08357C5.5832 5.11502 5.00374 6.51397 5.00374 7.97266C5.00374 8.23787 4.89838 8.49223 4.71084 8.67976C4.52331 8.8673 4.26895 8.97266 4.00374 8.97266C3.73852 8.97266 3.48416 8.8673 3.29663 8.67976C3.10909 8.49223 3.00374 8.23787 3.00374 7.97266ZM20.5037 13.4727C19.9204 13.472 19.3462 13.6177 18.8337 13.8964C18.6806 13.4225 18.4281 12.9868 18.0931 12.6183C17.7581 12.2498 17.3483 11.957 16.8912 11.7596C16.434 11.5621 15.9399 11.4644 15.442 11.4732C14.9441 11.4819 14.4537 11.5968 14.0037 11.8102V7.97266C14.0037 7.0444 13.635 6.15416 12.9786 5.49778C12.3222 4.84141 11.432 4.47266 10.5037 4.47266C9.57548 4.47266 8.68524 4.84141 8.02886 5.49778C7.37248 6.15416 7.00374 7.0444 7.00374 7.97266V17.9727L6.52624 17.2064C6.05929 16.404 5.2927 15.8199 4.3951 15.5826C3.4975 15.3454 2.54243 15.4745 1.73999 15.9414C0.937539 16.4084 0.353454 17.1749 0.11622 18.0725C-0.121013 18.9701 0.00803843 19.9252 0.474985 20.7277L4.13999 26.9777C4.20145 27.0994 4.28717 27.2073 4.39186 27.2946C4.49655 27.382 4.61801 27.4471 4.74876 27.4858C4.87952 27.5245 5.01681 27.536 5.1522 27.5197C5.28759 27.5034 5.41821 27.4596 5.53604 27.391C5.65387 27.3223 5.75641 27.2303 5.83736 27.1206C5.91832 27.0108 5.97597 26.8857 6.00678 26.7528C6.03759 26.62 6.0409 26.4823 6.01652 26.3481C5.99213 26.2139 5.94057 26.0862 5.86498 25.9727L2.20373 19.7227C2.10094 19.5519 2.03321 19.3624 2.00447 19.1652C1.97574 18.968 1.9866 18.7671 2.0364 18.5741C2.0862 18.3811 2.17396 18.2 2.29454 18.0414C2.41512 17.8827 2.5661 17.7497 2.73868 17.65C2.91126 17.5503 3.10196 17.4861 3.29965 17.4609C3.49735 17.4358 3.69807 17.4503 3.89009 17.5036C4.08211 17.557 4.26158 17.648 4.41803 17.7714C4.57447 17.8949 4.70474 18.0483 4.80124 18.2227L4.81874 18.2514L7.15373 22.0014C7.26838 22.1864 7.44024 22.3289 7.64324 22.4074C7.84624 22.4858 8.06929 22.4959 8.27854 22.4361C8.4878 22.3763 8.67183 22.2499 8.80271 22.076C8.93358 21.9021 9.00416 21.6903 9.00374 21.4727V7.97266C9.00374 7.57483 9.16177 7.1933 9.44308 6.912C9.72438 6.63069 10.1059 6.47266 10.5037 6.47266C10.9016 6.47266 11.2831 6.63069 11.5644 6.912C11.8457 7.1933 12.0037 7.57483 12.0037 7.97266V16.4727C12.0037 16.7379 12.1091 16.9922 12.2966 17.1798C12.4842 17.3673 12.7385 17.4727 13.0037 17.4727C13.269 17.4727 13.5233 17.3673 13.7108 17.1798C13.8984 16.9922 14.0037 16.7379 14.0037 16.4727V14.9727C14.0037 14.5748 14.1618 14.1933 14.4431 13.912C14.7244 13.6307 15.1059 13.4727 15.5037 13.4727C15.9016 13.4727 16.2831 13.6307 16.5644 13.912C16.8457 14.1933 17.0037 14.5748 17.0037 14.9727V17.4727C17.0037 17.7379 17.1091 17.9922 17.2966 18.1798C17.4842 18.3673 17.7385 18.4727 18.0037 18.4727C18.269 18.4727 18.5233 18.3673 18.7108 18.1798C18.8984 17.9922 19.0037 17.7379 19.0037 17.4727V16.9727C19.0037 16.5748 19.1618 16.1933 19.4431 15.912C19.7244 15.6307 20.1059 15.4727 20.5037 15.4727C20.9016 15.4727 21.2831 15.6307 21.5644 15.912C21.8457 16.1933 22.0037 16.5748 22.0037 16.9727V21.4727C22.0037 24.1739 21.1162 26.0102 21.1087 26.0252C20.9903 26.2624 20.9709 26.5369 21.0548 26.7884C21.1387 27.04 21.3191 27.2478 21.5562 27.3664C21.695 27.4366 21.8483 27.473 22.0037 27.4727C22.1895 27.4728 22.3717 27.4212 22.5297 27.3236C22.6878 27.226 22.8156 27.0863 22.8987 26.9202C22.945 26.8289 24.005 24.6702 24.005 21.4727V16.9727C24.005 16.5129 23.9144 16.0577 23.7384 15.633C23.5625 15.2083 23.3046 14.8224 22.9794 14.4973C22.6543 14.1723 22.2683 13.9145 21.8435 13.7387C21.4187 13.5629 20.9635 13.4725 20.5037 13.4727Z" fill="#33363F"/>
</svg>
