<svg width="22" height="22" stroke="currentColor" viewBox="0 0 22 22" fill="none" xmlns="http://www.w3.org/2000/svg">
<path d="M13.6667 5V10.8182C13.6667 11.0181 13.7266 11.2135 13.8387 11.379L17.943 17.4392C18.3927 18.1033 17.917 19 17.115 19H4.885C4.083 19 3.60729 18.1033 4.05702 17.4392L8.16132 11.379C8.27342 11.2135 8.33333 11.0181 8.33333 10.8182V5" stroke-linejoin="round"/>
<path d="M15.2397 16.1637L13.5703 14.3273C13.3808 14.1189 13.1121 14 12.8304 14H9.16964C8.8879 14 8.61922 14.1189 8.4297 14.3273L6.76031 16.1637C6.46832 16.4849 6.6962 17 7.13028 17H14.8697C15.3038 17 15.5317 16.4849 15.2397 16.1637Z" />
<path d="M7 5H15" stroke-linecap="round" stroke-linejoin="round"/>
</svg>
