<svg width="35" height="35" viewBox="0 0 35 35" fill="none" xmlns="http://www.w3.org/2000/svg">
<path fill-rule="evenodd" clip-rule="evenodd" d="M10.6667 7.71031C10.6667 7.00285 9.95214 6.51909 9.29528 6.78184L5.00361 8.4985C4.62395 8.65037 4.375 9.01807 4.375 9.42698V27.6896C4.375 28.397 5.08953 28.8808 5.74639 28.6181L10.0381 26.9014C10.4177 26.7495 10.6667 26.3818 10.6667 25.9729V7.71031ZM12.6667 25.7192C12.6667 26.178 12.979 26.578 13.4241 26.6893L21.0908 28.606C21.7219 28.7638 22.3333 28.2864 22.3333 27.6358V9.28072C22.3333 8.82185 22.021 8.42187 21.5759 8.31058L13.9092 6.39391C13.2781 6.23613 12.6667 6.71348 12.6667 7.36406V25.7192ZM24.9619 8.0985C24.5823 8.25037 24.3333 8.61807 24.3333 9.02698V27.2896C24.3333 27.997 25.0479 28.4808 25.7047 28.2181L29.9964 26.5014C30.376 26.3495 30.625 25.9818 30.625 25.5729V7.31031C30.625 6.60285 29.9105 6.11909 29.2536 6.38184L24.9619 8.0985Z" fill="#33363F"/>
</svg>
