<svg width="22" height="22" viewBox="0 0 22 22" fill="none" xmlns="http://www.w3.org/2000/svg">
<path d="M11 1.71875C9.16435 1.71875 7.36991 2.26309 5.84362 3.28292C4.31732 4.30276 3.12772 5.75229 2.42525 7.44822C1.72277 9.14415 1.53897 11.0103 1.89709 12.8107C2.25521 14.6111 3.13916 16.2648 4.43717 17.5628C5.73518 18.8608 7.38894 19.7448 9.18932 20.1029C10.9897 20.461 12.8559 20.2772 14.5518 19.5748C16.2477 18.8723 17.6972 17.6827 18.7171 16.1564C19.7369 14.6301 20.2813 12.8357 20.2813 11C20.2785 8.5393 19.2998 6.18016 17.5598 4.44018C15.8198 2.7002 13.4607 1.72148 11 1.71875ZM11 3.78125C12.3356 3.78019 13.6451 4.1516 14.7813 4.85375V6.22875L13.0445 8.25L10.5978 8.58086L8.99079 7.52812C8.80336 7.39731 8.59172 7.30519 8.36825 7.25716C8.14479 7.20913 7.91399 7.20616 7.68936 7.24841C7.46473 7.29066 7.25079 7.37729 7.06005 7.50324C6.86931 7.62918 6.70561 7.7919 6.57852 7.98187L4.77899 10.6717C4.59114 10.9513 4.49008 11.2802 4.48852 11.617L4.47477 14.0826C3.95527 12.9825 3.72221 11.769 3.79725 10.5547C3.87229 9.34047 4.253 8.16488 4.904 7.13714C5.55501 6.10941 6.45519 5.26287 7.52094 4.67617C8.58669 4.08947 9.78343 3.78163 11 3.78125ZM5.87899 16.0823C6.08128 15.9223 6.24495 15.7187 6.35786 15.4868C6.47078 15.2549 6.53004 15.0005 6.53125 14.7426L6.54844 11.7348L8.10133 9.41445L9.52961 10.3495C9.88313 10.5971 10.3171 10.7021 10.7448 10.6434L13.4492 10.2773C13.8668 10.2208 14.2491 10.0128 14.5234 9.69289L16.4278 7.47656C16.6154 7.25705 16.7451 6.99413 16.8051 6.71172C17.4316 7.55774 17.8649 8.53086 18.0746 9.5625C18.2842 10.5941 18.2651 11.6592 18.0185 12.6827L17.044 11.7915C16.8021 11.5714 16.5027 11.4246 16.1806 11.3682C15.8585 11.3117 15.527 11.348 15.2247 11.4727L12.6079 12.5606C12.3343 12.6753 12.0948 12.8584 11.9125 13.0925C11.7302 13.3265 11.6113 13.6036 11.5672 13.897L11.3618 15.2891C11.3001 15.7077 11.395 16.1343 11.6283 16.4872C11.8615 16.8402 12.2167 17.0947 12.6259 17.2021L14.0009 17.5613C12.659 18.1764 11.1605 18.3642 9.70835 18.0992C8.25618 17.8341 6.92057 17.1292 5.88243 16.0798L5.87899 16.0823ZM15.9139 16.2817L15.7738 16.1416C15.5581 15.9256 15.2888 15.7708 14.9935 15.693L13.4466 15.2874L13.5781 14.3928L15.8125 13.4638L17.1875 14.7177C16.8375 15.2955 16.4089 15.8219 15.9139 16.2817Z" fill="black"/>
</svg>
