<svg width="20" height="20" viewBox="0 0 20 20" fill="none" xmlns="http://www.w3.org/2000/svg">
<path d="M15.6046 10.4036L11.1694 8.77078L9.53654 4.33211C9.43985 4.06942 9.26491 3.84272 9.03532 3.68258C8.80573 3.52245 8.53255 3.43658 8.25263 3.43658C7.97272 3.43658 7.69954 3.52245 7.46995 3.68258C7.24036 3.84272 7.06542 4.06942 6.96873 4.33211L5.3342 8.76563L0.895525 10.3984C0.632839 10.4951 0.406134 10.6701 0.245997 10.8997C0.0858607 11.1292 0 11.4024 0 11.6823C0 11.9623 0.0858607 12.2354 0.245997 12.465C0.406134 12.6946 0.632839 12.8696 0.895525 12.9663L5.32818 14.6094L6.96099 19.0455C7.05769 19.3082 7.23263 19.5349 7.46222 19.695C7.6918 19.8551 7.96498 19.941 8.2449 19.941C8.52482 19.941 8.798 19.8551 9.02758 19.695C9.25717 19.5349 9.43211 19.3082 9.52881 19.0455L11.1616 14.6102L15.6003 12.9774C15.863 12.8807 16.0897 12.7058 16.2498 12.4762C16.41 12.2466 16.4958 11.9734 16.4958 11.6935C16.4958 11.4136 16.41 11.1404 16.2498 10.9108C16.0897 10.6812 15.863 10.5063 15.6003 10.4096L15.6046 10.4036ZM10.6898 13.3203C10.504 13.3885 10.3353 13.4963 10.1954 13.6363C10.0554 13.7762 9.94762 13.9449 9.87943 14.1307L8.24662 18.553L6.61724 14.1273C6.549 13.9425 6.44153 13.7746 6.30223 13.6353C6.16293 13.496 5.9951 13.3886 5.81029 13.3203L1.38795 11.6875L5.81029 10.0547C5.9951 9.98645 6.16293 9.87898 6.30223 9.73967C6.44153 9.60037 6.549 9.43254 6.61724 9.24774L8.25006 4.82539L9.88287 9.24774C9.95106 9.43352 10.0589 9.60224 10.1988 9.74219C10.3387 9.88213 10.5075 9.98993 10.6933 10.0581L15.1156 11.6909L10.6898 13.3203ZM11.0001 2.75C11.0001 2.56766 11.0725 2.3928 11.2014 2.26386C11.3304 2.13493 11.5052 2.0625 11.6876 2.0625H13.0626V0.6875C13.0626 0.505164 13.135 0.330295 13.2639 0.201364C13.3929 0.0724328 13.5677 0 13.7501 0C13.9324 0 14.1073 0.0724328 14.2362 0.201364C14.3651 0.330295 14.4376 0.505164 14.4376 0.6875V2.0625H15.8126C15.9949 2.0625 16.1698 2.13493 16.2987 2.26386C16.4276 2.3928 16.5001 2.56766 16.5001 2.75C16.5001 2.93234 16.4276 3.1072 16.2987 3.23614C16.1698 3.36507 15.9949 3.4375 15.8126 3.4375H14.4376V4.8125C14.4376 4.99484 14.3651 5.16971 14.2362 5.29864C14.1073 5.42757 13.9324 5.5 13.7501 5.5C13.5677 5.5 13.3929 5.42757 13.2639 5.29864C13.135 5.16971 13.0626 4.99484 13.0626 4.8125V3.4375H11.6876C11.5052 3.4375 11.3304 3.36507 11.2014 3.23614C11.0725 3.1072 11.0001 2.93234 11.0001 2.75ZM19.9376 6.875C19.9376 7.05734 19.8651 7.23221 19.7362 7.36114C19.6073 7.49007 19.4324 7.5625 19.2501 7.5625H18.5626V8.25C18.5626 8.43234 18.4901 8.60721 18.3612 8.73614C18.2323 8.86507 18.0574 8.9375 17.8751 8.9375C17.6927 8.9375 17.5179 8.86507 17.3889 8.73614C17.26 8.60721 17.1876 8.43234 17.1876 8.25V7.5625H16.5001C16.3177 7.5625 16.1429 7.49007 16.0139 7.36114C15.885 7.23221 15.8126 7.05734 15.8126 6.875C15.8126 6.69266 15.885 6.5178 16.0139 6.38886C16.1429 6.25993 16.3177 6.1875 16.5001 6.1875H17.1876V5.5C17.1876 5.31766 17.26 5.1428 17.3889 5.01386C17.5179 4.88493 17.6927 4.8125 17.8751 4.8125C18.0574 4.8125 18.2323 4.88493 18.3612 5.01386C18.4901 5.1428 18.5626 5.31766 18.5626 5.5V6.1875H19.2501C19.4324 6.1875 19.6073 6.25993 19.7362 6.38886C19.8651 6.5178 19.9376 6.69266 19.9376 6.875Z" fill="#33363F"/>
</svg>
