<svg width="25" height="24" viewBox="0 0 25 24" fill="none" xmlns="http://www.w3.org/2000/svg">
    <path fill-rule="evenodd" clip-rule="evenodd" d="M21.5 8H3.5V4H21.5V8Z" fill="#ABABAB"/>
    <path fill-rule="evenodd" clip-rule="evenodd" d="M21.5 22H3.5V20H21.5V22Z" fill="#ABABAB"/>
    <path fill-rule="evenodd" clip-rule="evenodd" d="M3.5 20V8H5.5V20H3.5Z" fill="#ABABAB"/>
    <path fill-rule="evenodd" clip-rule="evenodd" d="M19.5 20V8H21.5V20H19.5Z" fill="#ABABAB"/>
    <path fill-rule="evenodd" clip-rule="evenodd" d="M7.5 2H9.5V4H7.5V2Z" fill="#ABABAB"/>
    <path fill-rule="evenodd" clip-rule="evenodd" d="M15.5 2H17.5V4H15.5V2Z" fill="#ABABAB"/>
    <path fill-rule="evenodd" clip-rule="evenodd" d="M15.5 11H17.5V13H15.5V11Z" fill="#ABABAB"/>
    <path fill-rule="evenodd" clip-rule="evenodd" d="M15.5 15H17.5V17H15.5V15Z" fill="#ABABAB"/>
    <path fill-rule="evenodd" clip-rule="evenodd" d="M11.5 11H13.5V13H11.5V11Z" fill="#ABABAB"/>
    <path fill-rule="evenodd" clip-rule="evenodd" d="M11.5 15H13.5V17H11.5V15Z" fill="#ABABAB"/>
    <path fill-rule="evenodd" clip-rule="evenodd" d="M7.5 11H9.5V13H7.5V11Z" fill="#ABABAB"/>
    <path fill-rule="evenodd" clip-rule="evenodd" d="M7.5 15H9.5V17H7.5V15Z" fill="#ABABAB"/>
</svg>
