<svg width="22" height="22" viewBox="0 0 22 22" fill="currentColor" xmlns="http://www.w3.org/2000/svg">
<path d="M17.875 2.0625H6.1875C5.45815 2.0625 4.75868 2.35223 4.24296 2.86796C3.72723 3.38368 3.4375 4.08315 3.4375 4.8125V19.25C3.4375 19.4323 3.50993 19.6072 3.63886 19.7361C3.7678 19.8651 3.94266 19.9375 4.125 19.9375H16.5C16.6823 19.9375 16.8572 19.8651 16.9861 19.7361C17.1151 19.6072 17.1875 19.4323 17.1875 19.25C17.1875 19.0677 17.1151 18.8928 16.9861 18.7639C16.8572 18.6349 16.6823 18.5625 16.5 18.5625H4.8125C4.8125 18.1978 4.95737 17.8481 5.21523 17.5902C5.47309 17.3324 5.82283 17.1875 6.1875 17.1875H17.875C18.0573 17.1875 18.2322 17.1151 18.3611 16.9861C18.4901 16.8572 18.5625 16.6823 18.5625 16.5V2.75C18.5625 2.56766 18.4901 2.3928 18.3611 2.26386C18.2322 2.13493 18.0573 2.0625 17.875 2.0625ZM17.1875 15.8125H6.1875C5.70466 15.8118 5.23025 15.939 4.8125 16.1812V4.8125C4.8125 4.44783 4.95737 4.09809 5.21523 3.84023C5.47309 3.58237 5.82283 3.4375 6.1875 3.4375H17.1875V15.8125Z" />
</svg>
