<svg width="40" height="40" viewBox="0 0 40 40" fill="none" xmlns="http://www.w3.org/2000/svg">
<path fill-rule="evenodd" clip-rule="evenodd" d="M20.0002 31.6666C26.4435 31.6666 31.6668 26.4432 31.6668 19.9999C31.6668 13.5566 26.4435 8.33325 20.0002 8.33325C13.5568 8.33325 8.3335 13.5566 8.3335 19.9999C8.3335 26.4432 13.5568 31.6666 20.0002 31.6666ZM20.0002 24.9999C22.7616 24.9999 25.0002 22.7613 25.0002 19.9999C25.0002 17.2385 22.7616 14.9999 20.0002 14.9999C17.2387 14.9999 15.0002 17.2385 15.0002 19.9999C15.0002 22.7613 17.2387 24.9999 20.0002 24.9999Z" fill="#2A4157" fill-opacity="0.24"/>
<path d="M31.0668 19.9999C31.0668 26.1119 26.1121 31.0666 20.0002 31.0666V32.2666C26.7749 32.2666 32.2668 26.7746 32.2668 19.9999H31.0668ZM20.0002 8.93325C26.1121 8.93325 31.0668 13.888 31.0668 19.9999H32.2668C32.2668 13.2252 26.7749 7.73325 20.0002 7.73325V8.93325ZM8.9335 19.9999C8.9335 13.888 13.8882 8.93325 20.0002 8.93325V7.73325C13.2255 7.73325 7.7335 13.2252 7.7335 19.9999H8.9335ZM20.0002 31.0666C13.8882 31.0666 8.9335 26.1119 8.9335 19.9999H7.7335C7.7335 26.7746 13.2255 32.2666 20.0002 32.2666V31.0666ZM24.4002 19.9999C24.4002 22.43 22.4302 24.3999 20.0002 24.3999V25.5999C23.093 25.5999 25.6002 23.0927 25.6002 19.9999H24.4002ZM20.0002 15.5999C22.4302 15.5999 24.4002 17.5699 24.4002 19.9999H25.6002C25.6002 16.9071 23.093 14.3999 20.0002 14.3999V15.5999ZM15.6002 19.9999C15.6002 17.5699 17.5701 15.5999 20.0002 15.5999V14.3999C16.9074 14.3999 14.4002 16.9071 14.4002 19.9999H15.6002ZM20.0002 24.3999C17.5701 24.3999 15.6002 22.43 15.6002 19.9999H14.4002C14.4002 23.0927 16.9074 25.5999 20.0002 25.5999V24.3999Z" fill="#222222"/>
<path d="M20 8.33333V5" stroke="#222222" stroke-width="1.2" stroke-linecap="round"/>
<path d="M31.6667 20L35 20" stroke="#222222" stroke-width="1.2" stroke-linecap="round"/>
<path d="M20 35.0001L20 31.6667" stroke="#222222" stroke-width="1.2" stroke-linecap="round"/>
<path d="M5.00016 20H8.3335" stroke="#222222" stroke-width="1.2" stroke-linecap="round"/>
</svg>
