<?xml version="1.0" encoding="UTF-8" standalone="no"?>
<svg
   xmlns:dc="http://purl.org/dc/elements/1.1/"
   xmlns:cc="http://creativecommons.org/ns#"
   xmlns:rdf="http://www.w3.org/1999/02/22-rdf-syntax-ns#"
   xmlns:svg="http://www.w3.org/2000/svg"
   xmlns="http://www.w3.org/2000/svg"
   viewBox="0 0 200 200"
   height="current"
   width="current"
   xml:space="preserve"
   id="svg2"
   version="1.1"><metadata
     id="metadata8"><rdf:RDF><cc:Work
         rdf:about=""><dc:format>image/svg+xml</dc:format><dc:type
           rdf:resource="http://purl.org/dc/dcmitype/StillImage" /></cc:Work></rdf:RDF></metadata><defs
     id="defs6"><clipPath
       id="clipPath18"
       clipPathUnits="userSpaceOnUse"><path
         id="path16"
         d="M 0,150 H 150 V 0 H 0 Z" /></clipPath></defs><g
     transform="matrix(1.3333333,0,0,-1.3333333,0,200)"
     id="g10"><g
       id="g12"><g
         clip-path="url(#clipPath18)"
         id="g14"><g
           transform="translate(39.6664,92.9752)"
           id="g20"><path
             id="path22"
             style="fill:#5774ff;fill-opacity:1;fill-rule:nonzero;stroke:none"
             d="M 0,0 C -0.83,1.813 -2.372,2.704 -4.639,2.699 -6.077,2.696 -7.436,2.321 -8.727,1.563 c -1.306,-0.765 -2.226,-1.791 -2.763,-3.093 -0.545,-1.319 0.542,-3.099 3.652,-4.759 5.859,-3.127 6.784,-7.813 5.801,-10.878 -1.195,-3.728 -2.802,-5.474 -5.951,-7.932 -3.225,-2.513 -7.121,-4.157 -11.053,-3.869 -5.239,0.384 -8.215,4.281 -8.988,7.487 l 5.053,3.273 c 0.521,-1.851 0.808,-3.126 1.909,-4.165 3.066,-2.892 7.574,-0.39 9.139,0.868 1.545,1.241 2.946,2.972 3.575,4.685 0.448,1.222 0.444,2.282 -10e-4,3.181 -0.443,0.896 -2.546,2.239 -6.268,4.02 -3.66,1.758 -4.755,4.236 -3.356,7.376 1.163,2.611 3.075,4.752 5.727,6.453 2.599,1.669 5.29,2.493 8.106,2.495 3.877,0.004 6.562,-1.055 8.085,-3.21 z" /></g><g
           transform="translate(43.7709,65.3527)"
           id="g24"><path
             id="path26"
             style="fill:#5774ff;fill-opacity:1;fill-rule:nonzero;stroke:none"
             d="m 0,0 -6.348,-0.073 5.754,18.497 -2.814,-0.016 1.383,4.252 2.752,0.013 2.238,7.194 5.458,0.012 -2.024,-7.181 4.487,0.02 L 9.79,18.484 5.203,18.458 Z" /></g><g
           transform="translate(61.719,88.5186)"
           id="g28"><path
             id="path30"
             style="fill:#5774ff;fill-opacity:1;fill-rule:nonzero;stroke:none"
             d="m 0,0 -2.637,-11.825 c -1.025,-4.599 0.136,-6.96 3.517,-6.925 3.374,0.034 5.472,2.42 6.276,7.003 L 9.224,0.04 14.791,0.064 12.91,-12.756 c -1.049,-7.156 -5.403,-10.961 -13.037,-11.051 -7.667,-0.09 -10.562,3.657 -8.745,10.869 l 3.253,12.914 z" /></g><g
           transform="translate(96.1126,77.9729)"
           id="g32"><path
             id="path34"
             style="fill:#5774ff;fill-opacity:1;fill-rule:nonzero;stroke:none"
             d="M 0,0 C 0.076,1.97 -0.486,3.62 -1.669,4.968 -2.842,6.295 -4.29,6.954 -6.022,6.944 -7.761,6.935 -9.317,6.267 -10.698,4.937 c -1.404,-1.349 -2.217,-3.033 -2.426,-5.063 -0.213,-2.077 0.248,-3.85 1.398,-5.302 1.163,-1.472 2.746,-2.205 4.738,-2.185 1.989,0.02 3.638,0.762 4.945,2.216 C -0.76,-3.969 -0.083,-2.16 0,0 m -1.062,-9.669 c -1.729,-2.139 -4.387,-3.24 -7.954,-3.282 -3.578,-0.042 -6.276,1.303 -8.06,3.987 -1.741,2.626 -2.372,5.634 -1.93,8.992 0.428,3.251 1.768,5.944 3.991,8.118 2.169,2.125 4.733,3.18 7.717,3.192 3.167,0.013 5.458,-0.817 6.895,-2.51 l 0.769,15.644 h 5.09 l -0.493,-36.425 -6.124,-0.07 z" /></g><g
           transform="translate(122.1722,78.1804)"
           id="g36"><path
             id="path38"
             style="fill:#5774ff;fill-opacity:1;fill-rule:nonzero;stroke:none"
             d="M 0,0 C -0.193,2.061 -0.944,3.722 -2.244,5.004 -3.528,6.266 -5.082,6.89 -6.924,6.88 -8.763,6.87 -10.24,6.246 -11.355,5.001 -12.484,3.74 -13.023,2.045 -12.958,-0.1 c 0.066,-2.19 0.742,-3.985 2.042,-5.366 1.315,-1.399 2.978,-2.093 4.977,-2.072 1.992,0.02 3.541,0.722 4.641,2.104 C -0.216,-4.077 0.211,-2.258 0,0 m 6.32,-11.835 -5.892,-0.068 -0.205,2.268 c -1.548,-2.079 -4.065,-3.146 -7.525,-3.187 -3.473,-0.041 -6.284,1.291 -8.389,3.947 -2.057,2.599 -3.07,5.578 -3.075,8.903 -0.006,3.221 0.96,5.889 2.863,8.044 1.855,2.106 4.243,3.152 7.177,3.164 3.122,0.013 5.541,-0.828 7.293,-2.539 l -0.173,1.904 5.282,0.023 z" /></g><g
           transform="translate(150,88.8551)"
           id="g40"><path
             id="path42"
             style="fill:#5774ff;fill-opacity:1;fill-rule:nonzero;stroke:none"
             d="M 0,0 -5.135,-0.019 C -5.266,-0.02 -5.381,-0.105 -5.42,-0.23 l -3.12,-9.984 C -8.614,-10.449 -8.924,-10.5 -9.069,-10.3 l -6.062,8.362 c -0.855,1.179 -2.212,1.872 -3.653,1.867 l -3.043,-0.012 c -0.247,0 -0.389,-0.284 -0.238,-0.48 1.496,-1.941 4.228,-4.829 8.481,-10.348 0.199,-0.257 0.387,-0.509 0.564,-0.755 1.569,-2.171 2.289,-4.851 2.008,-7.516 -10e-4,-0.011 -0.002,-0.022 -0.003,-0.033 -0.456,-4.24 -2.55,-7.122 -3.468,-8.352 -0.848,-1.136 -1.272,-1.705 -2.008,-2.219 -3.147,-2.198 -7.651,-0.777 -8.974,-0.38 -6.178,1.853 -17.601,3.777 -24.645,3.715 -14.703,-0.131 -32.348,-9.1 -32.509,-9.243 -0.112,-0.099 -0.277,-0.1 -0.39,-10e-4 -6.496,5.696 -18.016,9.566 -31.201,9.729 -16.76,0.208 -31.016,-5.638 -35.751,-13.848 -0.113,-0.196 0.032,-0.442 0.259,-0.445 l 7.34,-0.091 c 0.076,-10e-4 0.148,0.027 0.204,0.078 6.598,6.057 16.545,9.854 27.619,9.717 11.122,-0.138 20.985,-4.214 27.391,-10.478 0.091,-0.089 0.182,-0.177 0.271,-0.267 0.038,0.087 8.941,0.068 9.028,0.151 6.592,6.271 16.72,9.773 28.012,10.083 5.276,0.144 9.687,-0.015 16.151,-2.184 4.888,-1.64 9.804,-3.904 14.402,-3.051 2.055,0.381 3.913,1.011 5.571,2.177 1.207,0.85 3.551,2.804 5.839,9.046 1.596,4.355 1.715,6.838 2.458,10.395 C -4.679,-11.153 -3.22,-6.05 0,0" /></g></g></g></g></svg>